<svg xmlns="http://www.w3.org/2000/svg" version="1.1" xmlns:xlink="http://www.w3.org/1999/xlink" xmlns:svgjs="http://svgjs.dev/svgjs" width="1500" height="993" viewBox="0 0 1500 993"><g transform="matrix(1,0,0,1,-0.37560212125561065,0.40202429149798036)"><svg viewBox="0 0 373 247" data-background-color="#0a83e8" preserveAspectRatio="xMidYMid meet" height="993" width="1500" xmlns="http://www.w3.org/2000/svg" xmlns:xlink="http://www.w3.org/1999/xlink"><g id="tight-bounds" transform="matrix(1,0,0,1,0.09339972748557557,-0.09999999999999432)"><svg viewBox="0 0 372.81320054502885 247.2" height="247.2" width="372.81320054502885"><g><svg viewBox="0 0 395.52 262.2561214491945" height="247.2" width="372.81320054502885"><g><svg viewBox="0 0 395.52 262.2561214491945" height="262.2561214491945" width="395.52"><g id="textblocktransform"><svg viewBox="0 0 395.52 262.2561214491945" height="262.2561214491945" width="395.52" id="textblock"><g><svg viewBox="0 0 395.52 187.83175033921302" height="187.83175033921302" width="395.52"><g transform="matrix(1,0,0,1,0,0)"><svg width="395.52" viewBox="3.15 -35 73.69999999999999 35" height="187.83175033921302" data-palette-color="#fff6f0"><path d="M28.3-27.5L33.3-27.5 33.3-13.75Q33.3-10.9 32.23-8.4 31.15-5.9 29.28-4.03 27.4-2.15 24.93-1.07 22.45 0 19.6 0L19.6 0 16.85 0Q14 0 11.53-1.07 9.05-2.15 7.18-4.05 5.3-5.95 4.23-8.43 3.15-10.9 3.15-13.75L3.15-13.75 3.15-27.5 8.15-27.5 8.15-13.75Q8.15-11.35 9.33-9.35 10.5-7.35 12.48-6.18 14.45-5 16.85-5L16.85-5 19.6-5Q22.05-5 24-6.18 25.95-7.35 27.13-9.35 28.3-11.35 28.3-13.75L28.3-13.75 28.3-27.5ZM76.85-5L76.85 0 40.65 0 40.65-35 76.85-35 76.85-30 45.65-30 45.65-5 76.85-5ZM72.6-20L72.6-15 48.15-15 48.15-20 72.6-20Z" opacity="1" transform="matrix(1,0,0,1,0,0)" fill="#fff6f0" class="wordmark-text-0" data-fill-palette-color="primary" id="text-0"></path></svg></g></svg></g><g transform="matrix(1,0,0,1,0,232.17431863229308)"><svg viewBox="0 0 395.52 30.08180281690141" height="30.08180281690141" width="395.52"><g transform="matrix(1,0,0,1,0,0)"><svg width="395.52" viewBox="3 -40.45 674.41 51.300000000000004" height="30.08180281690141" data-palette-color="#fff6f0"><path d="M17.05-18.3Q20.4-17.55 22.33-15.63 24.25-13.7 24.25-9.9L24.25-9.9Q24.25-4.9 20.88-2.45 17.5 0 11.7 0L11.7 0 3 0 3-34.55 10.55-34.55Q16.5-34.55 19.75-32.3 23-30.05 23-25.75L23-25.75Q23-22.85 21.38-20.95 19.75-19.05 17.05-18.3L17.05-18.3ZM11.2-29.85L9.35-29.85 9.35-20.3 11.5-20.3Q16.55-20.3 16.55-25.2L16.55-25.2Q16.55-27.65 15.28-28.75 14-29.85 11.2-29.85L11.2-29.85ZM11.75-4.8Q14.65-4.8 16.15-6.03 17.65-7.25 17.65-10.15L17.65-10.15Q17.65-13.05 16.25-14.43 14.85-15.8 11.9-15.8L11.9-15.8 9.35-15.8 9.35-4.8 11.75-4.8ZM39.9-27.1Q41.05-27.1 41.95-26.75L41.95-26.75 40.95-20.85Q39.95-21.1 39.1-21.1L39.1-21.1Q37.2-21.1 36.1-19.45 35-17.8 34.4-14.55L34.4-14.55 34.4 0 28.25 0 28.25-26.45 33.6-26.45 34.05-21.85Q35.9-27.1 39.9-27.1L39.9-27.1ZM63.65-13.85Q63.65-13.4 63.5-11.3L63.5-11.3 49.85-11.3Q50.05-7.2 51.27-5.58 52.5-3.95 54.75-3.95L54.75-3.95Q56.3-3.95 57.55-4.48 58.8-5 60.25-6.15L60.25-6.15 62.8-2.65Q59.3 0.75 54.4 0.75L54.4 0.75Q49.2 0.75 46.42-2.85 43.65-6.45 43.65-13L43.65-13Q43.65-19.55 46.3-23.35 48.95-27.15 53.8-27.15L53.8-27.15Q58.45-27.15 61.05-23.78 63.65-20.4 63.65-13.85L63.65-13.85ZM57.65-15.3L57.65-15.65Q57.65-19.4 56.75-21.13 55.85-22.85 53.85-22.85L53.85-22.85Q52-22.85 51.02-21.18 50.05-19.5 49.85-15.3L49.85-15.3 57.65-15.3ZM84.84-6.4Q84.84-5.1 85.19-4.48 85.54-3.85 86.34-3.45L86.34-3.45 85.09 0.65Q83.04 0.4 81.82-0.45 80.59-1.3 79.99-3.05L79.99-3.05Q77.69 0.75 73.54 0.75L73.54 0.75Q70.24 0.75 68.29-1.48 66.34-3.7 66.34-7.4L66.34-7.4Q66.34-11.7 69.02-13.95 71.69-16.2 76.79-16.2L76.79-16.2 78.84-16.2 78.84-18.05Q78.84-20.55 77.97-21.58 77.09-22.6 75.14-22.6L75.14-22.6Q72.79-22.6 69.29-21.3L69.29-21.3 67.89-25.3Q69.89-26.2 72.04-26.68 74.19-27.15 76.14-27.15L76.14-27.15Q84.84-27.15 84.84-18.35L84.84-18.35 84.84-6.4ZM75.19-3.7Q77.59-3.7 78.84-7L78.84-7 78.84-12.55 77.39-12.55Q74.84-12.55 73.67-11.4 72.49-10.25 72.49-7.85L72.49-7.85Q72.49-5.8 73.19-4.75 73.89-3.7 75.19-3.7L75.19-3.7ZM90.64-37.05L96.79-37.7 96.79 0 90.64 0 90.64-37.05ZM104.14-26.45L110.14-26.45 103.14-14.75 110.74 0 104.14 0 97.04-14.45 104.14-26.45ZM113.29-26.45L119.44-26.45 119.44 0 113.29 0 113.29-26.45ZM116.34-39.65Q117.99-39.65 119.01-38.6 120.04-37.55 120.04-35.9L120.04-35.9Q120.04-34.3 119.01-33.25 117.99-32.2 116.34-32.2L116.34-32.2Q114.69-32.2 113.66-33.25 112.64-34.3 112.64-35.9L112.64-35.9Q112.64-37.55 113.66-38.6 114.69-39.65 116.34-39.65L116.34-39.65ZM137.49-27.15Q140.34-27.15 141.99-25.1 143.64-23.05 143.64-19.6L143.64-19.6 143.64 0 137.49 0 137.49-18.9Q137.49-20.8 136.96-21.63 136.44-22.45 135.44-22.45L135.44-22.45Q133.34-22.45 131.29-18.5L131.29-18.5 131.29 0 125.14 0 125.14-26.45 130.49-26.45 130.94-23Q132.29-25.1 133.81-26.13 135.34-27.15 137.49-27.15L137.49-27.15ZM167.13-29.85L168.68-25.1Q167.63-24.6 166.16-24.4 164.68-24.2 162.48-24.2L162.48-24.2Q164.58-23.2 165.61-21.53 166.63-19.85 166.63-17.4L166.63-17.4Q166.63-13.4 164.18-10.95 161.73-8.5 157.53-8.5L157.53-8.5Q156.28-8.5 154.98-8.9L154.98-8.9Q154.08-8.15 154.08-6.85L154.08-6.85Q154.08-5.85 154.63-5.35 155.18-4.85 156.68-4.85L156.68-4.85 159.48-4.85Q163.48-4.85 165.83-2.78 168.18-0.7 168.18 2.5L168.18 2.5Q168.18 6.3 165.26 8.58 162.33 10.85 156.93 10.85L156.93 10.85Q151.23 10.85 148.96 8.75 146.68 6.65 146.68 2.6L146.68 2.6 152.13 2.6Q152.13 4.75 153.13 5.65 154.13 6.55 156.98 6.55L156.98 6.55Q159.73 6.55 160.88 5.6 162.03 4.65 162.03 2.9L162.03 2.9Q162.03 1.2 161.08 0.4 160.13-0.4 158.13-0.4L158.13-0.4 156.23-0.4Q152.43-0.4 150.68-1.75 148.93-3.1 148.93-5.45L148.93-5.45Q148.93-6.8 149.66-8.03 150.38-9.25 151.63-10.2L151.63-10.2Q149.58-11.5 148.63-13.3 147.68-15.1 147.68-17.7L147.68-17.7Q147.68-22.05 150.28-24.58 152.88-27.1 157.28-27.1L157.28-27.1Q160.53-27.1 162.66-27.8 164.78-28.5 167.13-29.85L167.13-29.85ZM157.28-23Q155.53-23 154.63-21.75 153.73-20.5 153.73-17.8L153.73-17.8Q153.73-15.25 154.63-13.88 155.53-12.5 157.23-12.5L157.23-12.5Q158.98-12.5 159.83-13.73 160.68-14.95 160.68-17.85L160.68-17.85Q160.68-20.55 159.86-21.78 159.03-23 157.28-23L157.28-23ZM195.48-18.3Q198.83-17.55 200.75-15.63 202.68-13.7 202.68-9.9L202.68-9.9Q202.68-4.9 199.3-2.45 195.93 0 190.13 0L190.13 0 181.43 0 181.43-34.55 188.98-34.55Q194.93-34.55 198.18-32.3 201.43-30.05 201.43-25.75L201.43-25.75Q201.43-22.85 199.8-20.95 198.18-19.05 195.48-18.3L195.48-18.3ZM189.63-29.85L187.78-29.85 187.78-20.3 189.93-20.3Q194.98-20.3 194.98-25.2L194.98-25.2Q194.98-27.65 193.7-28.75 192.43-29.85 189.63-29.85L189.63-29.85ZM190.18-4.8Q193.08-4.8 194.58-6.03 196.08-7.25 196.08-10.15L196.08-10.15Q196.08-13.05 194.68-14.43 193.28-15.8 190.33-15.8L190.33-15.8 187.78-15.8 187.78-4.8 190.18-4.8ZM223.58-6.4Q223.58-5.1 223.93-4.48 224.28-3.85 225.08-3.45L225.08-3.45 223.83 0.65Q221.78 0.4 220.55-0.45 219.33-1.3 218.73-3.05L218.73-3.05Q216.43 0.75 212.28 0.75L212.28 0.75Q208.98 0.75 207.03-1.48 205.08-3.7 205.08-7.4L205.08-7.4Q205.08-11.7 207.75-13.95 210.43-16.2 215.53-16.2L215.53-16.2 217.58-16.2 217.58-18.05Q217.58-20.55 216.7-21.58 215.83-22.6 213.88-22.6L213.88-22.6Q211.53-22.6 208.03-21.3L208.03-21.3 206.63-25.3Q208.63-26.2 210.78-26.68 212.93-27.15 214.88-27.15L214.88-27.15Q223.58-27.15 223.58-18.35L223.58-18.35 223.58-6.4ZM213.93-3.7Q216.33-3.7 217.58-7L217.58-7 217.58-12.55 216.13-12.55Q213.58-12.55 212.4-11.4 211.23-10.25 211.23-7.85L211.23-7.85Q211.23-5.8 211.93-4.75 212.63-3.7 213.93-3.7L213.93-3.7ZM241.02-27.1Q242.17-27.1 243.07-26.75L243.07-26.75 242.07-20.85Q241.07-21.1 240.22-21.1L240.22-21.1Q238.32-21.1 237.22-19.45 236.12-17.8 235.52-14.55L235.52-14.55 235.52 0 229.37 0 229.37-26.45 234.72-26.45 235.17-21.85Q237.02-27.1 241.02-27.1L241.02-27.1ZM257.57-27.1Q258.72-27.1 259.62-26.75L259.62-26.75 258.62-20.85Q257.62-21.1 256.77-21.1L256.77-21.1Q254.87-21.1 253.77-19.45 252.67-17.8 252.07-14.55L252.07-14.55 252.07 0 245.92 0 245.92-26.45 251.27-26.45 251.72-21.85Q253.57-27.1 257.57-27.1L257.57-27.1ZM262.47-26.45L268.62-26.45 268.62 0 262.47 0 262.47-26.45ZM265.52-39.65Q267.17-39.65 268.19-38.6 269.22-37.55 269.22-35.9L269.22-35.9Q269.22-34.3 268.19-33.25 267.17-32.2 265.52-32.2L265.52-32.2Q263.87-32.2 262.84-33.25 261.82-34.3 261.82-35.9L261.82-35.9Q261.82-37.55 262.84-38.6 263.87-39.65 265.52-39.65L265.52-39.65ZM293.17-13.85Q293.17-13.4 293.02-11.3L293.02-11.3 279.37-11.3Q279.57-7.2 280.79-5.58 282.02-3.95 284.27-3.95L284.27-3.95Q285.82-3.95 287.07-4.48 288.32-5 289.77-6.15L289.77-6.15 292.32-2.65Q288.82 0.75 283.92 0.75L283.92 0.75Q278.72 0.75 275.94-2.85 273.17-6.45 273.17-13L273.17-13Q273.17-19.55 275.82-23.35 278.47-27.15 283.32-27.15L283.32-27.15Q287.97-27.15 290.57-23.78 293.17-20.4 293.17-13.85L293.17-13.85ZM287.17-15.3L287.17-15.65Q287.17-19.4 286.27-21.13 285.37-22.85 283.37-22.85L283.37-22.85Q281.52-22.85 280.54-21.18 279.57-19.5 279.37-15.3L279.37-15.3 287.17-15.3ZM309.11-27.1Q310.26-27.1 311.16-26.75L311.16-26.75 310.16-20.85Q309.16-21.1 308.31-21.1L308.31-21.1Q306.41-21.1 305.31-19.45 304.21-17.8 303.61-14.55L303.61-14.55 303.61 0 297.46 0 297.46-26.45 302.81-26.45 303.26-21.85Q305.11-27.1 309.11-27.1L309.11-27.1ZM321.36-27.15Q326.06-27.15 329.31-24.05L329.31-24.05 326.96-20.7Q325.56-21.7 324.31-22.2 323.06-22.7 321.76-22.7L321.76-22.7Q320.31-22.7 319.49-21.93 318.66-21.15 318.66-19.8L318.66-19.8Q318.66-18.45 319.59-17.63 320.51-16.8 323.31-15.7L323.31-15.7Q326.76-14.35 328.41-12.5 330.06-10.65 330.06-7.55L330.06-7.55Q330.06-3.7 327.36-1.48 324.66 0.75 320.51 0.75L320.51 0.75Q317.81 0.75 315.54-0.23 313.26-1.2 311.56-2.95L311.56-2.95 314.56-6.25Q317.36-3.8 320.26-3.8L320.26-3.8Q321.91-3.8 322.86-4.67 323.81-5.55 323.81-7.1L323.81-7.1Q323.81-8.25 323.41-8.97 323.01-9.7 322.01-10.33 321.01-10.95 319.01-11.7L319.01-11.7Q315.56-13.05 314.09-14.85 312.61-16.65 312.61-19.45L312.61-19.45Q312.61-22.8 314.99-24.98 317.36-27.15 321.36-27.15L321.36-27.15ZM345.81-40.45L351.56-40.45 351.56 5.2 345.81 5.2 345.81-40.45ZM383.35-18.3Q386.7-17.55 388.63-15.63 390.55-13.7 390.55-9.9L390.55-9.9Q390.55-4.9 387.18-2.45 383.8 0 378 0L378 0 369.3 0 369.3-34.55 376.85-34.55Q382.8-34.55 386.05-32.3 389.3-30.05 389.3-25.75L389.3-25.75Q389.3-22.85 387.68-20.95 386.05-19.05 383.35-18.3L383.35-18.3ZM377.5-29.85L375.65-29.85 375.65-20.3 377.8-20.3Q382.85-20.3 382.85-25.2L382.85-25.2Q382.85-27.65 381.58-28.75 380.3-29.85 377.5-29.85L377.5-29.85ZM378.05-4.8Q380.95-4.8 382.45-6.03 383.95-7.25 383.95-10.15L383.95-10.15Q383.95-13.05 382.55-14.43 381.15-15.8 378.2-15.8L378.2-15.8 375.65-15.8 375.65-4.8 378.05-4.8ZM412.7-26.45L412.7 0 407.35 0 407.05-3.35Q405.8-1.3 404.25-0.28 402.7 0.75 400.65 0.75L400.65 0.75Q397.75 0.75 396.07-1.3 394.4-3.35 394.4-6.65L394.4-6.65 394.4-26.45 400.55-26.45 400.55-7Q400.55-3.9 402.65-3.9L402.65-3.9Q403.85-3.9 404.8-4.83 405.75-5.75 406.55-7.45L406.55-7.45 406.55-26.45 412.7-26.45ZM418.4-26.45L424.55-26.45 424.55 0 418.4 0 418.4-26.45ZM421.45-39.65Q423.1-39.65 424.12-38.6 425.15-37.55 425.15-35.9L425.15-35.9Q425.15-34.3 424.12-33.25 423.1-32.2 421.45-32.2L421.45-32.2Q419.8-32.2 418.77-33.25 417.75-34.3 417.75-35.9L417.75-35.9Q417.75-37.55 418.77-38.6 419.8-39.65 421.45-39.65L421.45-39.65ZM435.84 0.75Q433.14 0.75 431.57-0.93 429.99-2.6 429.99-5.4L429.99-5.4 429.99-37.05 436.14-37.7 436.14-5.65Q436.14-5 436.44-4.6 436.74-4.2 437.34-4.2L437.34-4.2Q437.69-4.2 438.02-4.3 438.34-4.4 438.44-4.4L438.44-4.4 439.64-0.2Q437.94 0.75 435.84 0.75L435.84 0.75ZM455.64-37.7L461.79-37.05 461.79 0 456.34 0 456.04-3.05Q453.69 0.75 449.99 0.75L449.99 0.75Q445.89 0.75 443.72-2.93 441.54-6.6 441.54-13.2L441.54-13.2Q441.54-17.4 442.67-20.58 443.79-23.75 445.79-25.45 447.79-27.15 450.39-27.15L450.39-27.15Q453.59-27.15 455.64-24.5L455.64-24.5 455.64-37.7ZM451.74-3.9Q452.89-3.9 453.82-4.7 454.74-5.5 455.64-7L455.64-7 455.64-19.85Q454.04-22.55 451.99-22.55L451.99-22.55Q447.94-22.55 447.94-13.25L447.94-13.25Q447.94-8.2 448.94-6.05 449.94-3.9 451.74-3.9L451.74-3.9ZM467.49-26.45L473.64-26.45 473.64 0 467.49 0 467.49-26.45ZM470.54-39.65Q472.19-39.65 473.21-38.6 474.24-37.55 474.24-35.9L474.24-35.9Q474.24-34.3 473.21-33.25 472.19-32.2 470.54-32.2L470.54-32.2Q468.89-32.2 467.86-33.25 466.84-34.3 466.84-35.9L466.84-35.9Q466.84-37.55 467.86-38.6 468.89-39.65 470.54-39.65L470.54-39.65ZM491.69-27.15Q494.54-27.15 496.19-25.1 497.84-23.05 497.84-19.6L497.84-19.6 497.84 0 491.69 0 491.69-18.9Q491.69-20.8 491.16-21.63 490.64-22.45 489.64-22.45L489.64-22.45Q487.54-22.45 485.49-18.5L485.49-18.5 485.49 0 479.34 0 479.34-26.45 484.69-26.45 485.14-23Q486.49-25.1 488.01-26.13 489.54-27.15 491.69-27.15L491.69-27.15ZM521.33-29.85L522.88-25.1Q521.83-24.6 520.36-24.4 518.88-24.2 516.68-24.2L516.68-24.2Q518.78-23.2 519.81-21.53 520.83-19.85 520.83-17.4L520.83-17.4Q520.83-13.4 518.38-10.95 515.93-8.5 511.73-8.5L511.73-8.5Q510.48-8.5 509.18-8.9L509.18-8.9Q508.28-8.15 508.28-6.85L508.28-6.85Q508.28-5.85 508.83-5.35 509.38-4.85 510.88-4.85L510.88-4.85 513.68-4.85Q517.68-4.85 520.03-2.78 522.38-0.7 522.38 2.5L522.38 2.5Q522.38 6.3 519.46 8.58 516.53 10.85 511.13 10.85L511.13 10.85Q505.43 10.85 503.16 8.75 500.88 6.65 500.88 2.6L500.88 2.6 506.33 2.6Q506.33 4.75 507.33 5.65 508.33 6.55 511.18 6.55L511.18 6.55Q513.93 6.55 515.08 5.6 516.23 4.65 516.23 2.9L516.23 2.9Q516.23 1.2 515.28 0.4 514.33-0.4 512.33-0.4L512.33-0.4 510.43-0.4Q506.63-0.4 504.88-1.75 503.13-3.1 503.13-5.45L503.13-5.45Q503.13-6.8 503.86-8.03 504.58-9.25 505.83-10.2L505.83-10.2Q503.78-11.5 502.83-13.3 501.88-15.1 501.88-17.7L501.88-17.7Q501.88-22.05 504.48-24.58 507.08-27.1 511.48-27.1L511.48-27.1Q514.73-27.1 516.86-27.8 518.98-28.5 521.33-29.85L521.33-29.85ZM511.48-23Q509.73-23 508.83-21.75 507.93-20.5 507.93-17.8L507.93-17.8Q507.93-15.25 508.83-13.88 509.73-12.5 511.43-12.5L511.43-12.5Q513.18-12.5 514.03-13.73 514.88-14.95 514.88-17.85L514.88-17.85Q514.88-20.55 514.06-21.78 513.23-23 511.48-23L511.48-23ZM547.13-35.25Q549.78-35.25 551.8-34.38 553.83-33.5 555.73-31.7L555.73-31.7 552.68-28.05Q551.38-29.25 550.15-29.83 548.93-30.4 547.48-30.4L547.48-30.4Q544.48-30.4 542.78-27.4 541.08-24.4 541.08-17.35L541.08-17.35Q541.08-10.4 542.78-7.38 544.48-4.35 547.58-4.35L547.58-4.35Q549.13-4.35 550.28-4.98 551.43-5.6 552.98-6.9L552.98-6.9 556.03-3.4Q554.43-1.6 552.18-0.43 549.93 0.75 547.13 0.75L547.13 0.75Q541.28 0.75 537.83-3.8 534.38-8.35 534.38-17.35L534.38-17.35Q534.38-23.3 536.03-27.3 537.68-31.3 540.55-33.27 543.43-35.25 547.13-35.25L547.13-35.25ZM576.18-6.4Q576.18-5.1 576.53-4.48 576.88-3.85 577.68-3.45L577.68-3.45 576.43 0.65Q574.38 0.4 573.15-0.45 571.93-1.3 571.33-3.05L571.33-3.05Q569.03 0.75 564.88 0.75L564.88 0.75Q561.58 0.75 559.63-1.48 557.68-3.7 557.68-7.4L557.68-7.4Q557.68-11.7 560.35-13.95 563.03-16.2 568.13-16.2L568.13-16.2 570.18-16.2 570.18-18.05Q570.18-20.55 569.3-21.58 568.43-22.6 566.48-22.6L566.48-22.6Q564.13-22.6 560.63-21.3L560.63-21.3 559.23-25.3Q561.23-26.2 563.38-26.68 565.53-27.15 567.48-27.15L567.48-27.15Q576.18-27.15 576.18-18.35L576.18-18.35 576.18-6.4ZM566.53-3.7Q568.93-3.7 570.18-7L570.18-7 570.18-12.55 568.73-12.55Q566.18-12.55 565-11.4 563.83-10.25 563.83-7.85L563.83-7.85Q563.83-5.8 564.53-4.75 565.23-3.7 566.53-3.7L566.53-3.7ZM593.62-27.1Q594.77-27.1 595.67-26.75L595.67-26.75 594.67-20.85Q593.67-21.1 592.82-21.1L592.82-21.1Q590.92-21.1 589.82-19.45 588.72-17.8 588.12-14.55L588.12-14.55 588.12 0 581.97 0 581.97-26.45 587.32-26.45 587.77-21.85Q589.62-27.1 593.62-27.1L593.62-27.1ZM617.37-13.85Q617.37-13.4 617.22-11.3L617.22-11.3 603.57-11.3Q603.77-7.2 605-5.58 606.22-3.95 608.47-3.95L608.47-3.95Q610.02-3.95 611.27-4.48 612.52-5 613.97-6.15L613.97-6.15 616.52-2.65Q613.02 0.75 608.12 0.75L608.12 0.75Q602.92 0.75 600.14-2.85 597.37-6.45 597.37-13L597.37-13Q597.37-19.55 600.02-23.35 602.67-27.15 607.52-27.15L607.52-27.15Q612.17-27.15 614.77-23.78 617.37-20.4 617.37-13.85L617.37-13.85ZM611.37-15.3L611.37-15.65Q611.37-19.4 610.47-21.13 609.57-22.85 607.57-22.85L607.57-22.85Q605.72-22.85 604.75-21.18 603.77-19.5 603.57-15.3L603.57-15.3 611.37-15.3ZM640.52-13.85Q640.52-13.4 640.37-11.3L640.37-11.3 626.72-11.3Q626.92-7.2 628.14-5.58 629.37-3.95 631.62-3.95L631.62-3.95Q633.17-3.95 634.42-4.48 635.67-5 637.12-6.15L637.12-6.15 639.67-2.65Q636.17 0.75 631.27 0.75L631.27 0.75Q626.07 0.75 623.29-2.85 620.52-6.45 620.52-13L620.52-13Q620.52-19.55 623.17-23.35 625.82-27.15 630.67-27.15L630.67-27.15Q635.32-27.15 637.92-23.78 640.52-20.4 640.52-13.85L640.52-13.85ZM634.52-15.3L634.52-15.65Q634.52-19.4 633.62-21.13 632.72-22.85 630.72-22.85L630.72-22.85Q628.87-22.85 627.89-21.18 626.92-19.5 626.72-15.3L626.72-15.3 634.52-15.3ZM656.46-27.1Q657.61-27.1 658.51-26.75L658.51-26.75 657.51-20.85Q656.51-21.1 655.66-21.1L655.66-21.1Q653.76-21.1 652.66-19.45 651.56-17.8 650.96-14.55L650.96-14.55 650.96 0 644.81 0 644.81-26.45 650.16-26.45 650.61-21.85Q652.46-27.1 656.46-27.1L656.46-27.1ZM668.71-27.15Q673.41-27.15 676.66-24.05L676.66-24.05 674.31-20.7Q672.91-21.7 671.66-22.2 670.41-22.7 669.11-22.7L669.11-22.7Q667.66-22.7 666.84-21.93 666.01-21.15 666.01-19.8L666.01-19.8Q666.01-18.45 666.94-17.63 667.86-16.8 670.66-15.7L670.66-15.7Q674.11-14.35 675.76-12.5 677.41-10.65 677.41-7.55L677.41-7.55Q677.41-3.7 674.71-1.48 672.01 0.75 667.86 0.75L667.86 0.75Q665.16 0.75 662.89-0.23 660.61-1.2 658.91-2.95L658.91-2.95 661.91-6.25Q664.71-3.8 667.61-3.8L667.61-3.8Q669.26-3.8 670.21-4.67 671.16-5.55 671.16-7.1L671.16-7.1Q671.16-8.25 670.76-8.97 670.36-9.7 669.36-10.33 668.36-10.95 666.36-11.7L666.36-11.7Q662.91-13.05 661.44-14.85 659.96-16.65 659.96-19.45L659.96-19.45Q659.96-22.8 662.34-24.98 664.71-27.15 668.71-27.15L668.71-27.15Z" opacity="1" transform="matrix(1,0,0,1,0,0)" fill="#fff6f0" class="slogan-text-1" data-fill-palette-color="secondary" id="text-1"></path></svg></g></svg></g></svg></g></svg></g><g></g></svg></g><defs></defs></svg><rect width="372.81320054502885" height="247.2" fill="none" stroke="none" visibility="hidden"></rect></g></svg></g></svg>